<svg width="20" height="14" viewBox="0 0 20 14" fill="none" xmlns="http://www.w3.org/2000/svg">
<path d="M18.5021 0.00100708H1.49785C0.670586 0.00100708 0 0.717471 0 1.60133V12.4006C0 13.2845 0.670586 14.001 1.49785 14.001H18.5021C19.3294 14.001 20 13.2845 20 12.4006V1.60133C20 0.717471 19.3294 0.00100708 18.5021 0.00100708Z" fill="#41479B"/>
<path d="M19.9793 1.33581C19.8612 0.577946 19.245 0 18.5021 0H18.1124L11.7241 4.47178V4.17121e-05H8.27586V4.47182L1.88758 4.17121e-05H1.49785C0.755 4.17121e-05 0.138789 0.577946 0.0207422 1.33585L5.48082 5.15794H0V8.84214H5.48082L0.0207422 12.6641C0.138789 13.422 0.755 14 1.49785 14H1.88758L8.27586 9.52818V14H11.7241V9.52818L18.1124 14H18.5021C19.245 14 19.8612 13.4221 19.9793 12.6641L14.5192 8.84206H20V5.15786H14.5192L19.9793 1.33581Z" fill="#F5F5F5"/>
<path d="M11.0345 0.00100708H8.96551V5.89569H0V8.10623H8.96551V14.0009H11.0345V8.10623H20V5.89569H11.0345V0.00100708Z" fill="#FF4B55"/>
<path d="M0.968516 13.8968L8.25691 8.84212H6.9902L0.360352 13.4401C0.522578 13.6424 0.731055 13.8009 0.968516 13.8968Z" fill="#FF4B55"/>
<path d="M13.5308 8.84212H12.264L19.3233 13.7378C19.5208 13.5992 19.6856 13.412 19.8032 13.1921L13.5308 8.84212Z" fill="#FF4B55"/>
<path d="M0.158203 0.884784L6.31953 5.1579H7.58625L0.604531 0.315811C0.41707 0.464888 0.263672 0.659791 0.158203 0.884784Z" fill="#FF4B55"/>
<path d="M12.9908 5.15868L19.6328 0.55218C19.4688 0.350558 19.2587 0.192967 19.0196 0.098938L11.7241 5.15868H12.9908Z" fill="#FF4B55"/>
</svg>
