<svg width="20" height="14" viewBox="0 0 20 14" fill="none" xmlns="http://www.w3.org/2000/svg">
<path d="M1.49785 14H18.5021C19.3294 14 20 13.2835 20 12.3997V1.60034C20 0.716511 19.3294 0 18.5021 0H1.49785C0.670626 0 0 0.716469 0 1.60034V12.3997C0 13.2835 0.670586 14 1.49785 14Z" fill="#F5F5F5"/>
<path d="M0 5.5H8.5V0H11.5V5.5H20V8.5H11.5V14H8.5V8.5H0V5.5Z" fill="#FF4B55"/>
<path d="M14.1379 2.44389C14.4795 2.48058 14.8141 2.51735 15.1492 2.55416C15.1147 2.19611 15.0804 1.83861 15.0459 1.47372C15.3592 1.517 15.6752 1.517 15.9885 1.47372C15.9541 1.83865 15.9197 2.19615 15.8852 2.55416C16.2204 2.51739 16.555 2.48062 16.8965 2.44389C16.856 2.77853 16.856 3.11625 16.8965 3.45088C16.5549 3.4142 16.2203 3.37743 15.8852 3.34062C15.9197 3.69866 15.9541 4.05617 15.9885 4.42106C15.6752 4.37778 15.3592 4.37778 15.0459 4.42106C15.0803 4.05617 15.1147 3.69862 15.1492 3.34062C14.8141 3.37739 14.4795 3.41415 14.1379 3.45088C14.1784 3.11625 14.1784 2.77849 14.1379 2.44389Z" fill="#FF4B55"/>
<path d="M3.10338 2.44389C3.44495 2.48058 3.77956 2.51735 4.11463 2.55416C4.08018 2.19611 4.04581 1.83861 4.01139 1.47372C4.32463 1.517 4.64069 1.517 4.95393 1.47372C4.91959 1.83865 4.88518 2.19615 4.85069 2.55416C5.18581 2.51739 5.52045 2.48062 5.86194 2.44389C5.82143 2.77853 5.82143 3.11625 5.86194 3.45088C5.52038 3.4142 5.18577 3.37743 4.85069 3.34062C4.88514 3.69866 4.91956 4.05617 4.95393 4.42106C4.64069 4.37778 4.32463 4.37778 4.01139 4.42106C4.04573 4.05617 4.08018 3.69862 4.11463 3.34062C3.77952 3.37739 3.44491 3.41415 3.10338 3.45088C3.14385 3.11625 3.14385 2.77849 3.10338 2.44389Z" fill="#FF4B55"/>
<path d="M14.1379 10.5491C14.4795 10.5858 14.8141 10.6226 15.1492 10.6594C15.1147 10.3013 15.0804 9.94383 15.0459 9.57894C15.3592 9.62222 15.6752 9.62222 15.9885 9.57894C15.9541 9.94383 15.9197 10.3014 15.8852 10.6594C16.2204 10.6226 16.555 10.5858 16.8965 10.5491C16.856 10.8838 16.856 11.2215 16.8965 11.5561C16.5549 11.5194 16.2203 11.4827 15.8852 11.4458C15.9197 11.8039 15.9541 12.1614 15.9885 12.5263C15.6752 12.483 15.3592 12.483 15.0459 12.5263C15.0803 12.1614 15.1147 11.8038 15.1492 11.4458C14.8141 11.4826 14.4795 11.5194 14.1379 11.5561C14.1784 11.2215 14.1784 10.8838 14.1379 10.5491Z" fill="#FF4B55"/>
<path d="M3.10338 10.5491C3.44495 10.5858 3.77956 10.6226 4.11463 10.6594C4.08018 10.3013 4.04581 9.94383 4.01139 9.57894C4.32463 9.62222 4.64069 9.62222 4.95393 9.57894C4.91959 9.94383 4.88518 10.3014 4.85069 10.6594C5.18581 10.6226 5.52045 10.5858 5.86194 10.5491C5.82143 10.8838 5.82143 11.2215 5.86194 11.5561C5.52038 11.5194 5.18577 11.4827 4.85069 11.4458C4.88514 11.8039 4.91956 12.1614 4.95393 12.5263C4.64069 12.483 4.32463 12.483 4.01139 12.5263C4.04573 12.1614 4.08018 11.8038 4.11463 11.4458C3.77952 11.4826 3.44491 11.5194 3.10338 11.5561C3.14385 11.2215 3.14385 10.8838 3.10338 10.5491Z" fill="#FF4B55"/>
</svg>
