<svg width="15" height="15" viewBox="0 0 15 15" fill="none" xmlns="http://www.w3.org/2000/svg">
<g opacity="0.8">
<path fill-rule="evenodd" clip-rule="evenodd" d="M10.7341 14.6143C10.1984 14.6028 9.66834 14.4791 9.1495 14.2993C8.00254 13.9021 6.96921 13.2923 6.00231 12.565C4.44046 11.3901 3.09778 9.99964 2.0002 8.37373C1.45318 7.56346 0.992213 6.70667 0.676802 5.77594C0.495627 5.24138 0.367317 4.69574 0.36916 4.12614C0.369753 3.94196 0.390688 3.7599 0.437496 3.5813C0.492599 3.37116 0.590033 3.18685 0.743953 3.03101C1.02967 2.74163 1.29163 2.42809 1.60947 2.17156C1.8177 2.00351 2.04134 1.86273 2.30527 1.80426C2.69606 1.71771 3.03484 1.84654 3.34518 2.07592C3.69832 2.33696 3.96376 2.6803 4.21761 3.03346C4.38674 3.26875 4.53533 3.51605 4.65291 3.78267C4.8984 4.33906 4.82276 4.84163 4.42019 5.29641C4.26949 5.46665 4.11649 5.63543 3.94816 5.78716C3.73248 5.98156 3.69377 6.21426 3.76106 6.48107C3.83446 6.77231 3.98002 7.02897 4.14224 7.27641C4.50498 7.82961 4.94271 8.3207 5.39716 8.79698C5.98605 9.41411 6.59534 10.0097 7.27027 10.5323C7.58515 10.7761 7.91169 11.0029 8.28615 11.1466C8.44863 11.2089 8.61565 11.2541 8.79367 11.2259C8.90802 11.2079 9.00473 11.159 9.08643 11.0763C9.26682 10.8939 9.44365 10.708 9.63233 10.5338C10.0909 10.1107 10.6037 10.0291 11.1616 10.2966C11.819 10.6118 12.4008 11.0325 12.8505 11.6179C13.0461 11.8726 13.1562 12.1643 13.1301 12.4941C13.1066 12.7906 12.9737 13.0426 12.8024 13.2769C12.5833 13.5767 12.3025 13.818 12.0508 14.0869C11.6867 14.4759 11.4062 14.599 10.7341 14.6143Z" fill="black"/>
</g>
</svg>
