<svg width="15" height="13" viewBox="0 0 15 13" fill="none" xmlns="http://www.w3.org/2000/svg">
<g opacity="0.8" clip-path="url(#clip0_990_196)">
<path fill-rule="evenodd" clip-rule="evenodd" d="M5.70138 11.4225C5.76652 10.4596 5.83239 9.49673 5.89554 8.53369C5.90026 8.46101 5.9268 8.41083 5.97998 8.36138C6.27117 8.09017 6.56383 7.8202 6.84652 7.54028C7.20558 7.18467 7.57218 6.83684 7.93565 6.4858C8.284 6.14948 8.62942 5.81015 8.97841 5.47435C9.32372 5.14207 9.66746 4.80824 10.0108 4.47388C10.3541 4.13943 10.7063 3.81348 11.0406 3.47104C11.2523 3.25436 11.4994 3.07303 11.6854 2.83157C11.7249 2.78035 11.7728 2.73712 11.7228 2.67015C11.6684 2.59706 11.6046 2.61966 11.5451 2.66092C11.1649 2.92374 10.7563 3.14415 10.3863 3.422C10.3656 3.43745 10.3419 3.44906 10.3199 3.46285C9.85145 3.75645 9.37732 4.04166 8.9161 4.34605C8.40044 4.68631 7.87648 5.01372 7.36019 5.35242C7.10141 5.52214 6.83267 5.67568 6.57694 5.84913C6.03977 6.21365 5.48603 6.55288 4.94204 6.90661C4.69606 7.06648 4.44379 7.21681 4.1997 7.37927C4.18239 7.39078 4.15848 7.39669 4.14715 7.41213C3.99904 7.61368 3.81274 7.58143 3.62981 7.48253C3.37376 7.34402 3.09075 7.28161 2.82075 7.18353C2.14502 6.93813 1.46918 6.69304 0.787359 6.46382C0.572743 6.39166 0.389911 6.26176 0.374282 6.00143C0.360645 5.77449 0.459981 5.62136 0.671135 5.52432C1.09827 5.32806 1.54596 5.18095 1.97582 4.99381C2.42141 4.79984 2.88662 4.65417 3.32572 4.45025C3.73428 4.26052 4.16886 4.13922 4.57428 3.94856C4.99596 3.75023 5.44711 3.6251 5.86627 3.42729C6.22218 3.25923 6.60086 3.15213 6.95592 2.9875C7.42523 2.76988 7.92316 2.62235 8.39225 2.40951C8.78823 2.22994 9.20792 2.11134 9.59781 1.92483C10.0327 1.71675 10.5004 1.59255 10.9329 1.38655C11.3259 1.19921 11.7506 1.0918 12.1375 0.900107C12.5867 0.677725 13.0733 0.552382 13.5249 0.338397C13.6152 0.295579 13.7326 0.310197 13.8475 0.371054C14.3636 0.644341 14.4916 0.881135 14.377 1.42429C14.1016 2.72997 13.8241 4.03524 13.5494 5.34112C13.2652 6.69232 12.9828 8.04372 12.7006 9.39523C12.5092 10.313 12.323 11.2317 12.1281 12.1488C12.0332 12.5955 11.6229 12.8082 11.2502 12.6204C11.1634 12.5767 11.117 12.4956 11.0438 12.4398C10.6695 12.1547 10.2923 11.8728 9.92897 11.5745C9.50666 11.2276 9.06904 10.8991 8.65051 10.5489C8.41858 10.3548 8.15215 10.2019 7.94739 9.97591C7.91928 9.94491 7.89694 9.94139 7.86033 9.97954C7.55666 10.2962 7.24774 10.6078 6.94334 10.9236C6.69002 11.1865 6.44068 11.4531 6.18977 11.7184C6.09327 11.8205 5.99058 11.9096 5.83596 11.8431C5.67778 11.775 5.68596 11.6372 5.69729 11.4996C5.69949 11.474 5.6976 11.4481 5.6976 11.4223C5.69886 11.4225 5.70012 11.4225 5.70138 11.4225Z" fill="black"/>
</g>
<defs>
<clipPath id="clip0_990_196">
<rect width="15" height="13" fill="white"/>
</clipPath>
</defs>
</svg>
