<svg width="40" height="40" viewBox="0 0 40 40" fill="none" xmlns="http://www.w3.org/2000/svg">
<path d="M20 40C31.0457 40 40 31.0457 40 20C40 8.9543 31.0457 0 20 0C8.9543 0 0 8.9543 0 20C0 31.0457 8.9543 40 20 40Z" fill="#D22215"/>
<path d="M26.6914 11.9009H13.3087C10.6831 11.9009 8.55469 14.0294 8.55469 16.6549V23.3449C8.55469 25.9706 10.6832 28.099 13.3087 28.099H26.6914C29.317 28.099 31.4455 25.9705 31.4455 23.3449V16.6549C31.4455 14.0294 29.317 11.9009 26.6914 11.9009ZM23.4762 20.3254L17.2168 23.3107C17.0499 23.3903 16.8572 23.2688 16.8572 23.0841V16.9267C16.8572 16.7392 17.055 16.6178 17.222 16.7025L23.4814 19.8745C23.6678 19.9688 23.6645 20.2357 23.4762 20.3254Z" fill="white"/>
</svg>
